<svg width="148" height="25" viewBox="0 0 148 25" fill="none" xmlns="http://www.w3.org/2000/svg">
<path d="M17.6701 22.9264C16.5634 23.4797 14.3506 24.0328 11.5151 24.0328C4.94497 24.0328 0 19.8832 0 12.2413C0 4.94496 4.94497 0 12.172 0C15.0767 0 16.9096 0.62233 17.7047 1.03722L16.9786 3.49239C15.8375 2.93905 14.2121 2.52393 12.2759 2.52393C6.81219 2.52393 3.18135 6.01656 3.18135 12.137C3.18135 17.8425 6.46629 21.5079 12.1374 21.5079C13.9703 21.5079 15.8375 21.1277 17.0478 20.5397L17.6701 22.9264Z" fill="black"/>
<path d="M40.631 11.7918C40.631 19.8142 35.7552 24.0674 29.8074 24.0674C23.6524 24.0674 19.3298 19.2955 19.3298 12.2415C19.3298 4.84134 23.9288 0.000213623 30.1533 0.000213623C36.516 0.000213623 40.631 4.87596 40.631 11.7918ZM22.5457 12.1723C22.5457 17.1516 25.243 21.6125 29.9803 21.6125C34.7524 21.6125 37.4494 17.2208 37.4494 11.9302C37.4494 7.29652 35.0288 2.45539 30.0146 2.45539C25.0355 2.45539 22.5457 7.05447 22.5457 12.1723Z" fill="black"/>
<path d="M64.1798 13.4518C64.007 10.2014 63.7993 6.29393 63.834 3.38926H63.7303C62.935 6.1211 61.9667 9.02578 60.7911 12.2417L56.6761 23.5492H54.3938L50.6247 12.4492C49.5182 9.16399 48.5844 6.15571 47.9275 3.38949H47.8585C47.7892 6.29416 47.6164 10.2017 47.409 13.6943L46.7866 23.6876H43.9166L45.5417 0.380966H49.3803L53.3568 11.654C54.325 14.5239 55.1202 17.0829 55.7081 19.5037H55.812C56.3997 17.1521 57.2297 14.5933 58.2671 11.654L62.4167 0.380966H66.255L67.7073 23.6876H64.768L64.1798 13.4518Z" fill="black"/>
<path d="M72.3403 0.657171C73.7927 0.415349 75.6945 0.207672 78.1151 0.207672C81.089 0.207672 83.2672 0.899221 84.6503 2.14412C85.9301 3.25056 86.6906 4.94519 86.6906 7.01986C86.6906 9.12938 86.0683 10.7889 84.8924 11.9994C83.3019 13.6938 80.7082 14.5582 77.7692 14.5582C76.8699 14.5582 76.0402 14.5236 75.3484 14.3505V23.6871H72.3401L72.3403 0.657171ZM75.3488 11.8954C76.006 12.0684 76.8358 12.1374 77.8386 12.1374C81.4695 12.1374 83.6826 10.374 83.6826 7.15808C83.6826 4.08057 81.5043 2.59339 78.1845 2.59339C76.8704 2.59339 75.8676 2.69699 75.3488 2.83544V11.8954Z" fill="black"/>
<path d="M91.6013 16.3564L89.1807 23.6874H86.0684L93.987 0.380718H97.6179L105.571 23.6874H102.355L99.8653 16.3564H91.6013ZM99.2435 14.0049L96.9611 7.29629C96.4424 5.77495 96.0967 4.3916 95.7509 3.04287H95.6816C95.3357 4.42622 94.9557 5.84394 94.506 7.26167L92.2236 14.0046H99.2435V14.0049Z" fill="black"/>
<path d="M108.995 23.6871V0.380482H112.28L119.75 12.1723C121.479 14.9041 122.827 17.3593 123.934 19.7452L124.003 19.7106C123.726 16.5985 123.657 13.7628 123.657 10.1322V0.380724H126.492V23.6874H123.45L116.049 11.8612C114.424 9.26782 112.868 6.60496 111.692 4.08079L111.589 4.11517C111.761 7.05446 111.831 9.85553 111.831 13.7282V23.6871H108.995Z" fill="black"/>
<path d="M136.694 23.6871V13.7974L129.328 0.380482H132.752L136.037 6.8124C136.936 8.57579 137.628 9.99375 138.354 11.6189H138.423C139.08 10.0974 139.875 8.57579 140.774 6.8124L144.129 0.380482H147.552L139.737 13.7628V23.6871H136.694Z" fill="black"/>
</svg>
