<svg width="150" height="23" viewBox="0 0 150 23" fill="none" xmlns="http://www.w3.org/2000/svg">
<path d="M0.790222 17.7113C0.837464 16.9082 0.884711 15.9162 0.884711 15.066V0.940689H1.99489V8.47578H2.04213C2.798 7.01128 4.19141 6.11369 6.19919 6.11369C9.05733 6.11369 11.0415 8.49917 11.0415 11.9244C11.0415 15.9636 8.4668 17.9712 5.98684 17.9712C4.16802 17.9712 2.82163 17.2389 1.92403 15.6563H1.87679L1.80593 17.7113H0.790222ZM1.99489 13.3417C1.99489 13.6015 2.04214 13.885 2.08938 14.1684C2.58542 15.8928 4.04992 17.0266 5.82149 17.0266C8.41979 17.0266 9.90792 14.9007 9.90792 11.9481C9.90792 9.34998 8.49066 7.0349 5.91598 7.0349C4.26251 7.0349 2.6799 8.19232 2.13662 10.082C2.06576 10.3654 1.99489 10.6723 1.99489 11.0739V13.3417Z" fill="black"/>
<path d="M22.6392 14.9479C22.6392 15.9398 22.6864 16.8374 22.7337 17.7113H21.6944L21.6235 15.7036H21.5763C21.0094 16.7429 19.7102 17.9712 17.6788 17.9712C16.2379 17.9712 13.8286 17.2625 13.8286 12.9635V6.3735H14.9388V12.7509C14.9388 15.2075 15.718 16.9791 17.9623 16.9791C19.6157 16.9791 20.8204 15.8217 21.2928 14.6879C21.4109 14.3335 21.529 13.8847 21.529 13.4359V6.3735H22.6392V14.9479Z" fill="black"/>
<path d="M25.9931 16.2232C26.6072 16.6011 27.5285 17.0027 28.5442 17.0027C30.3394 17.0027 31.1895 16.0342 31.1895 14.8534C31.1895 13.6018 30.4336 12.9401 28.8038 12.2787C26.9377 11.5701 25.922 10.5544 25.922 9.18463C25.922 7.55478 27.1975 6.1139 29.4179 6.1139C30.4572 6.1139 31.3312 6.42098 31.9217 6.82254L31.4729 7.74352C31.095 7.46006 30.3627 7.0585 29.2289 7.0585C27.7881 7.0585 27.0322 7.97972 27.0322 9.01904C27.0322 10.2001 27.8353 10.7195 29.3707 11.3575C31.2131 12.0659 32.2997 12.9874 32.2997 14.7115C32.2997 16.6484 30.7879 17.9475 28.4731 17.9475C27.3629 17.9475 26.3472 17.6405 25.5913 17.168L25.9931 16.2232Z" fill="black"/>
<path d="M36.7404 3.13767C36.7404 3.65733 36.3861 4.10612 35.7955 4.10612C35.2759 4.10612 34.9216 3.65733 34.9216 3.13767C34.9216 2.61777 35.3231 2.14558 35.8428 2.14558C36.3861 2.14558 36.7404 2.59438 36.7404 3.13767ZM35.2759 17.7113V6.3735H36.3861V17.7113H35.2759Z" fill="black"/>
<path d="M40.2127 9.0899C40.2127 8.05058 40.1655 7.27133 40.1183 6.37374H41.1576L41.2521 8.42853H41.2993C41.9134 7.153 43.3307 6.1139 45.1968 6.1139C46.2833 6.1139 49.1415 6.65718 49.1415 10.9087V17.7116H48.0313V11.0032C48.0313 8.94818 47.2282 7.08213 44.8897 7.08213C43.2835 7.08213 41.9373 8.21593 41.4885 9.68043C41.394 9.96388 41.3232 10.3416 41.3232 10.6961V17.7113H40.213V9.0899H40.2127Z" fill="black"/>
<path d="M53.0389 11.9244C53.0389 15.5621 55.0231 16.9791 57.3616 16.9791C59.015 16.9791 59.8654 16.6484 60.5032 16.3413L60.7866 17.2389C60.3614 17.4751 59.204 17.9473 57.2199 17.9473C53.9602 17.9473 51.929 15.5852 51.929 12.2549C51.929 8.47553 54.1021 6.11343 57.0309 6.11343C60.7394 6.11343 61.448 9.60911 61.448 11.239C61.448 11.546 61.448 11.735 61.4008 11.9242H53.0389V11.9244ZM60.2667 11.0268C60.2903 9.444 59.629 7.03489 56.8892 7.03489C54.3853 7.03489 53.2988 9.27889 53.1098 11.0268H60.2667Z" fill="black"/>
<path d="M63.8569 16.2232C64.4711 16.6011 65.3923 17.0027 66.408 17.0027C68.2032 17.0027 69.0536 16.0342 69.0536 14.8534C69.0536 13.6018 68.2977 12.9401 66.6678 12.2787C64.8018 11.5701 63.7861 10.5544 63.7861 9.18463C63.7861 7.55478 65.0616 6.1139 67.282 6.1139C68.3213 6.1139 69.1953 6.42098 69.7856 6.82254L69.3368 7.74352C68.9588 7.46006 68.2266 7.0585 67.0928 7.0585C65.6519 7.0585 64.896 7.97972 64.896 9.01904C64.896 10.2001 65.6991 10.7195 67.2345 11.3575C69.0769 12.0659 70.1635 12.9874 70.1635 14.7115C70.1635 16.6484 68.6518 17.9475 66.3369 17.9475C65.2267 17.9475 64.211 17.6405 63.4551 17.168L63.8569 16.2232Z" fill="black"/>
<path d="M72.667 16.2232C73.2812 16.6011 74.2024 17.0027 75.2181 17.0027C77.0133 17.0027 77.8636 16.0342 77.8636 14.8534C77.8636 13.6018 77.1077 12.9401 75.4779 12.2787C73.6118 11.5701 72.5961 10.5544 72.5961 9.18463C72.5961 7.55478 73.8717 6.1139 76.092 6.1139C77.1314 6.1139 78.0053 6.42098 78.5959 6.82254L78.1471 7.74352C77.7691 7.46006 77.0369 7.0585 75.9031 7.0585C74.4622 7.0585 73.7063 7.97972 73.7063 9.01904C73.7063 10.2001 74.5094 10.7195 76.0448 11.3575C77.887 12.0659 78.9738 12.9874 78.9738 14.7115C78.9738 16.6484 77.4621 17.9475 75.1472 17.9475C74.037 17.9475 73.0213 17.6405 72.2654 17.168L72.667 16.2232Z" fill="black"/>
<path d="M88.6817 3.09043V6.37375H91.9178V7.27133H88.6817V14.6409C88.6817 16.0817 89.1305 17.0029 90.3352 17.0029C90.9255 17.0029 91.3509 16.9087 91.6344 16.814L91.7759 17.688C91.3982 17.8294 90.8783 17.9475 90.1933 17.9475C89.3665 17.9475 88.6815 17.6879 88.2563 17.1444C87.7367 16.5539 87.5479 15.6091 87.5479 14.4516V7.2711H85.6346V6.3735H87.5479V3.44451L88.6817 3.09043Z" fill="black"/>
<path d="M100.61 17.7113L100.445 16.0815H100.374C99.8307 16.9552 98.5785 17.9712 96.7599 17.9712C94.4923 17.9712 93.4294 16.3649 93.4294 14.8532C93.4294 12.2313 95.7442 10.6489 100.35 10.6961V10.4127C100.35 9.27863 100.138 7.03488 97.4449 7.0585C96.4529 7.0585 95.4135 7.31809 94.6107 7.90885L94.2561 7.08212C95.2718 6.39711 96.5473 6.11366 97.563 6.11366C100.846 6.11366 101.461 8.57024 101.461 10.6014V15.0185C101.461 15.9161 101.508 16.8371 101.626 17.7113H100.61ZM100.35 11.641C97.8701 11.5699 94.6104 11.948 94.6104 14.6644C94.6104 16.2943 95.697 17.0265 96.8778 17.0265C98.7675 17.0265 99.8304 15.8691 100.232 14.7589C100.303 14.5227 100.35 14.2867 100.35 14.0739V11.641Z" fill="black"/>
<path d="M114.263 6.37373C114.216 7.22408 114.168 8.12168 114.168 9.3025V16.0578C114.168 18.9632 113.578 20.4041 112.633 21.3017C111.594 22.2938 110.059 22.6481 108.783 22.6481C107.484 22.6481 106.043 22.3174 105.193 21.6796L105.594 20.7582C106.374 21.2781 107.484 21.703 108.948 21.703C111.334 21.703 113.058 20.4747 113.058 17.1206V15.5146H113.011C112.421 16.6718 111.098 17.7113 109.066 17.7113C106.208 17.7113 104.201 15.2313 104.201 12.1368C104.201 8.1923 106.799 6.11366 109.302 6.11366C111.547 6.11366 112.657 7.34195 113.129 8.28679H113.176L113.223 6.37348H114.263V6.37373ZM113.058 10.7198C113.058 10.3182 113.011 9.96412 112.916 9.63319C112.444 8.26317 111.239 7.03487 109.397 7.03487C106.988 7.03487 105.334 9.01903 105.334 12.0187C105.334 14.5697 106.681 16.7665 109.35 16.7665C110.861 16.7665 112.279 15.8453 112.846 14.2157C112.987 13.8377 113.058 13.4123 113.058 13.011V10.7198Z" fill="black"/>
<path d="M117.995 0.940681H119.105V17.7113H117.995V0.940681Z" fill="black"/>
<path d="M124.467 3.13767C124.467 3.65733 124.112 4.10612 123.522 4.10612C123.002 4.10612 122.648 3.65733 122.648 3.13767C122.648 2.61777 123.05 2.14558 123.569 2.14558C124.112 2.14558 124.467 2.59438 124.467 3.13767ZM123.002 17.7113V6.3735H124.112V17.7113H123.002Z" fill="black"/>
<path d="M127.939 9.0899C127.939 8.05058 127.892 7.27133 127.844 6.37374H128.884L128.978 8.42853H129.025C129.64 7.153 131.057 6.1139 132.923 6.1139C134.009 6.1139 136.867 6.65718 136.867 10.9087V17.7116H135.757V11.0032C135.757 8.94818 134.954 7.08213 132.616 7.08213C131.009 7.08213 129.663 8.21593 129.214 9.68043C129.12 9.96388 129.049 10.3416 129.049 10.6961V17.7113H127.939L127.939 9.0899Z" fill="black"/>
<path d="M140.765 11.9244C140.765 15.5621 142.749 16.9791 145.087 16.9791C146.741 16.9791 147.591 16.6484 148.229 16.3413L148.513 17.2389C148.088 17.4751 146.93 17.9473 144.946 17.9473C141.686 17.9473 139.655 15.5852 139.655 12.2549C139.655 8.47553 141.828 6.11343 144.757 6.11343C148.465 6.11343 149.174 9.60911 149.174 11.239C149.174 11.546 149.174 11.735 149.127 11.9242H140.765V11.9244ZM147.993 11.0268C148.017 9.444 147.355 7.03489 144.615 7.03489C142.111 7.03489 141.025 9.27889 140.836 11.0268H147.993Z" fill="black"/>
</svg>
